<?xml version="1.0" encoding="UTF-8"?>
<svg id="Camada_2" data-name="Camada 2" xmlns="http://www.w3.org/2000/svg" viewBox="0 0 573.58 394.71">
  <defs>
    <style>
      .cls-1 {
        font-family: Coolvetica-Regular, Coolvetica;
        font-size: 121.53px;
      }

      .cls-1, .cls-2 {
        fill: #da4437;
      }

      .cls-3 {
        fill: #fff;
      }
    </style>
  </defs>
  <g id="Camada_1-2" data-name="Camada 1">
    <path class="cls-3" d="M124.97,176.11l-7.73-25.2c-1.09-3.54-4.36-5.96-8.06-5.96h-54.13c-3.6,0-6.81,2.29-7.97,5.69l-8.83,25.73c-1.17,3.41-4.37,5.69-7.97,5.69H8.44c-5.83,0-9.9-5.77-7.94-11.26L58.69,7.76c1.2-3.36,4.38-5.6,7.94-5.6h31.71c3.58,0,6.76,2.26,7.95,5.63l57.46,163.05c1.93,5.48-2.14,11.23-7.95,11.23h-22.77c-3.7,0-6.97-2.42-8.06-5.96ZM82.1,42.54h-.27l-19.48,60.51c-1.75,5.44,2.31,11.01,8.02,11.01h22.73c5.69,0,9.75-5.53,8.04-10.96l-19.04-60.57Z"/>
    <path class="cls-2" d="M256.83,178.15l-22.96-46.99c-2.13-4.36-7.94-5.28-11.32-1.8l-8.15,8.41c-1.27,1.31-1.97,3.05-1.97,4.87v32.43c0,3.87-3.14,7-7,7h-21.49c-3.87,0-7-3.14-7-7V7c0-3.87,3.14-7,7-7h21.49c3.87,0,7,3.14,7,7v73.66c0,6.48,8.05,9.48,12.3,4.59l29.5-34.06c1.33-1.54,3.26-2.42,5.29-2.42h24.02c6.08,0,9.27,7.22,5.17,11.72l-30.74,33.72c-1.97,2.17-2.39,5.33-1.04,7.94l36.09,69.71c2.41,4.66-.97,10.22-6.22,10.22h-23.68c-2.68,0-5.12-1.52-6.29-3.93Z"/>
    <path class="cls-3" d="M83.95,278.6h16.06c4.62,0,8.36,3.74,8.36,8.36v29.57c0,28.18-16.26,53.38-53.92,53.38S0,344.99,0,316.26v-110.85c0-4.62,3.74-8.36,8.36-8.36h17.96c4.62,0,8.36,3.74,8.36,8.36v19.31c0,4.62,3.74,8.36,8.36,8.36h56.98c4.62,0,8.36,3.74,8.36,8.36v8.2c0,4.62-3.74,8.36-8.36,8.36h-56.98c-4.62,0-8.36,3.74-8.36,8.36v46.37c0,16.8,5.96,26.55,20.32,26.55s20.59-9.48,20.59-26.01v-26.32c0-4.62,3.74-8.36,8.36-8.36Z"/>
    <path class="cls-3" d="M209.44,361.52h0c0-4.25-5.09-6.49-8.18-3.56-8.58,8.12-19.67,11.96-33.28,11.96-26.55,0-45.25-19.78-45.25-49.04v-82.91c0-2.69,2.18-4.87,4.87-4.87h25.48c2.69,0,4.87,2.18,4.87,4.87v77.5c0,16.8,7.59,24.93,22.49,24.93,17.88,0,27.37-12.73,27.37-30.35v-72.08c0-2.69,2.18-4.87,4.87-4.87h25.21c2.69,0,4.87,2.18,4.87,4.87v123.56c0,2.69-2.18,4.87-4.87,4.87h-23.58c-2.69,0-4.87-2.18-4.87-4.87Z"/>
    <path class="cls-3" d="M340.68,362.75s-.02-.08-.03-.12c-.71-3.24-4.5-4.74-7.18-2.79-8.46,6.18-20.22,10.07-34.35,10.07-30.35,0-44.43-14.9-44.43-36.58,0-38.47,25.74-42.81,61.23-47.69,17.61-2.44,22.49-5.96,22.49-15.17,0-8.67-8.67-13.82-22.49-13.82s-21.06,6.33-23.46,16.25c-.5,2.07-2.35,3.53-4.48,3.53h-24.08c-2.73,0-4.85-2.36-4.61-5.08,2.27-24.88,18.12-41.79,58.25-41.79,42.27,0,56.9,18.97,56.9,52.56v79.64c0,2.55-2.07,4.62-4.62,4.62h-24.63c-2.17,0-4.05-1.51-4.52-3.64ZM339.07,309.33c.06-3.29-3.22-5.55-6.3-4.39-3.76,1.43-8.95,2.63-16.31,4.01-20.05,3.79-26.55,9.48-26.55,20.86,0,10.03,5.96,14.9,17.07,14.9,18.15,0,31.7-13.28,31.97-28.99l.12-6.4Z"/>
    <path class="cls-2" d="M393.18,359.53v-11.65c0-3.79,3.07-6.86,6.86-6.86h12.4c3.79,0,6.86,3.07,6.86,6.86v11.65c0,3.79-3.07,6.86-6.86,6.86h-12.4c-3.79,0-6.86-3.07-6.86-6.86Z"/>
    <path class="cls-2" d="M256.83,178.15l-22.96-46.99c-2.13-4.36-7.94-5.28-11.32-1.8l-8.15,8.41c-1.27,1.31-1.97,3.05-1.97,4.87v32.43c0,3.87-3.14,7-7,7h-21.49c-3.87,0-7-3.14-7-7V7c0-3.87,3.14-7,7-7h21.49c3.87,0,7,3.14,7,7v73.66c0,6.48,8.05,9.48,12.3,4.59l29.5-34.06c1.33-1.54,3.26-2.42,5.29-2.42h24.02c6.08,0,9.27,7.22,5.17,11.72l-30.74,33.72c-1.97,2.17-2.39,5.33-1.04,7.94l36.09,69.71c2.41,4.66-.97,10.22-6.22,10.22h-23.68c-2.68,0-5.12-1.52-6.29-3.93Z"/>
    <text class="cls-1" transform="translate(432.61 366.39)"><tspan x="0" y="0">zip</tspan></text>
  </g>
</svg>